<svg xmlns="http://www.w3.org/2000/svg" version="1.1" xmlns:xlink="http://www.w3.org/1999/xlink" width="200" height="200"><svg xmlns="http://www.w3.org/2000/svg" version="1.1" xmlns:xlink="http://www.w3.org/1999/xlink" viewBox="0 0 200 200"><rect width="200" height="200" fill="url('#gradient')"></rect><defs><linearGradient id="SvgjsLinearGradient1001" gradientTransform="rotate(45 0.5 0.5)"><stop offset="0%" stop-color="#f1f0ed"></stop><stop offset="100%" stop-color="#f1f0ed"></stop></linearGradient></defs><g><g fill="#211e23" transform="matrix(2.337603043753963,0,0,2.337603043753963,9.181582655767585,117.30060576352426)" stroke="#832018" stroke-width="0.2"><path d="M12.24-14.22L12.24-11.57L7.97-11.57L7.97 0L4.54 0L4.54-11.57L0.35-11.57L0.35-14.22L12.24-14.22ZM17.77 0.20L17.77 0.20Q15.34 0.20 13.84-1.25Q12.33-2.71 12.33-5.03L12.33-5.03L12.33-5.30Q12.33-6.92 12.93-8.16Q13.54-9.40 14.69-10.08Q15.84-10.76 17.42-10.76L17.42-10.76Q19.65-10.76 20.94-9.38Q22.23-8.00 22.23-5.53L22.23-5.53L22.23-4.25L15.68-4.25Q15.86-3.36 16.46-2.85Q17.05-2.34 18.00-2.34L18.00-2.34Q19.56-2.34 20.44-3.44L20.44-3.44L21.94-1.66Q21.33-0.81 20.20-0.31Q19.07 0.20 17.77 0.20ZM17.40-8.22L17.40-8.22Q15.96-8.22 15.68-6.31L15.68-6.31L19.00-6.31L19.00-6.56Q19.02-7.35 18.60-7.79Q18.18-8.22 17.40-8.22ZM28.02-2.34L28.02-2.34Q28.71-2.34 29.09-2.72Q29.47-3.10 29.46-3.77L29.46-3.77L32.55-3.77Q32.55-2.03 31.30-0.92Q30.06 0.20 28.10 0.20L28.10 0.20Q25.79 0.20 24.46-1.25Q23.13-2.70 23.13-5.25L23.13-5.25L23.13-5.39Q23.13-6.99 23.73-8.22Q24.32-9.44 25.43-10.10Q26.54-10.76 28.07-10.76L28.07-10.76Q30.13-10.76 31.34-9.62Q32.55-8.48 32.55-6.52L32.55-6.52L29.46-6.52Q29.46-7.34 29.06-7.78Q28.66-8.22 27.99-8.22L27.99-8.22Q26.71-8.22 26.49-6.59L26.49-6.59Q26.43-6.07 26.43-5.17L26.43-5.17Q26.43-3.57 26.81-2.96Q27.19-2.34 28.02-2.34ZM37.16-15L37.16-9.43Q38.21-10.76 39.85-10.76L39.85-10.76Q41.60-10.76 42.49-9.73Q43.38-8.69 43.40-6.67L43.40-6.67L43.40 0L40.10 0L40.10-6.59Q40.10-7.43 39.76-7.83Q39.41-8.22 38.59-8.22L38.59-8.22Q37.58-8.22 37.16-7.58L37.16-7.58L37.16 0L33.87 0L33.87-15L37.16-15ZM48.70-10.57L48.70 0L45.40 0L45.40-10.57L48.70-10.57ZM45.21-13.29L45.21-13.29Q45.21-13.99 45.71-14.44Q46.22-14.89 47.03-14.89Q47.84-14.89 48.35-14.44Q48.86-13.99 48.86-13.29Q48.86-12.59 48.35-12.14Q47.84-11.69 47.03-11.69Q46.22-11.69 45.71-12.14Q45.21-12.59 45.21-13.29ZM57.12 0L57.02-1.14Q55.98 0.20 54.20 0.20L54.20 0.20Q52.46 0.20 51.57-0.82Q50.67-1.83 50.67-3.72L50.67-3.72L50.67-10.57L53.96-10.57L53.96-3.70Q53.96-2.34 55.28-2.34L55.28-2.34Q56.42-2.34 56.89-3.15L56.89-3.15L56.89-10.57L60.21-10.57L60.21 0L57.12 0ZM62.03-10.57L65.12-10.57L65.22-9.33Q66.35-10.76 68.24-10.76L68.24-10.76Q70.24-10.76 70.95-9.17L70.95-9.17Q72.02-10.76 74.05-10.76L74.05-10.76Q77.27-10.76 77.35-6.88L77.35-6.88L77.35 0L74.05 0L74.05-6.67Q74.05-7.48 73.78-7.85Q73.51-8.22 72.78-8.22L72.78-8.22Q71.81-8.22 71.33-7.35L71.33-7.35L71.34-7.22L71.34 0L68.04 0L68.04-6.65Q68.04-7.48 67.77-7.85Q67.51-8.22 66.77-8.22L66.77-8.22Q65.82-8.22 65.32-7.35L65.32-7.35L65.32 0L62.03 0L62.03-10.57Z"></path></g></g></svg><style>@media (prefers-color-scheme: light) { :root { filter: none; } }
@media (prefers-color-scheme: dark) { :root { filter: none; } }
</style></svg>